/* XPM */
static char * coin_xpm[] = {
"32 32 183 2",
"  	c #000000",
". 	c #000003",
"+ 	c #000006",
"@ 	c #000008",
"# 	c #000014",
"$ 	c #000016",
"% 	c #000022",
"& 	c #00003E",
"* 	c #000047",
"= 	c #000707",
"- 	c #000808",
"; 	c #00006D",
"> 	c #070707",
", 	c #050808",
"' 	c #080808",
") 	c #000092",
"! 	c #0000B2",
"~ 	c #0000B8",
"{ 	c #0000BB",
"] 	c #0000DD",
"^ 	c #0C0E0E",
"/ 	c #0000EB",
"( 	c #0102DF",
"_ 	c #0000FC",
": 	c #0000FF",
"< 	c #001414",
"[ 	c #111122",
"} 	c #131313",
"| 	c #0005FF",
"1 	c #141414",
"2 	c #011A1A",
"3 	c #0008FF",
"4 	c #11193B",
"5 	c #002222",
"6 	c #0A0FFF",
"7 	c #1D1D1D",
"8 	c #112222",
"9 	c #042727",
"0 	c #162222",
"a 	c #202020",
"b 	c #0D14FF",
"c 	c #222222",
"d 	c #1B2A2A",
"e 	c #0022FF",
"f 	c #0322FF",
"g 	c #1B2895",
"h 	c #1622FF",
"i 	c #002EFF",
"j 	c #004054",
"k 	c #004747",
"l 	c #293E3E",
"m 	c #2B4747",
"n 	c #2F4747",
"o 	c #434343",
"p 	c #474747",
"q 	c #474949",
"r 	c #006D6D",
"s 	c #066D6D",
"t 	c #137171",
"u 	c #426464",
"v 	c #5D5D5D",
"w 	c #006DFF",
"x 	c #0071FF",
"y 	c #3E5EFF",
"z 	c #008080",
"A 	c #64646F",
"B 	c #486D6D",
"C 	c #666666",
"D 	c #497171",
"E 	c #507070",
"F 	c #007FFF",
"G 	c #476AFF",
"H 	c #6D6D6D",
"I 	c #486DFF",
"J 	c #008E8E",
"K 	c #009292",
"L 	c #777777",
"M 	c #787878",
"N 	c #009B9B",
"O 	c #797979",
"P 	c #7A7A7A",
"Q 	c #5783C1",
"R 	c #7D7D7D",
"S 	c #7F7F7F",
"T 	c #648787",
"U 	c #5A86B8",
"V 	c #818181",
"W 	c #629292",
"X 	c #898989",
"Y 	c #8A8A8A",
"Z 	c #8C8C8C",
"` 	c #8A8F8F",
" .	c #6292FF",
"..	c #8E8E8E",
"+.	c #909191",
"@.	c #919191",
"#.	c #929292",
"$.	c #00B8FF",
"%.	c #969696",
"&.	c #6B9BFF",
"*.	c #72A1A1",
"=.	c #999999",
"-.	c #9B9B9B",
";.	c #00D1D1",
">.	c #A3A3A3",
",.	c #79B2B2",
"'.	c #A9A9A9",
").	c #02DADA",
"!.	c #7BB8B8",
"~.	c #ABABAB",
"{.	c #00DAFF",
"].	c #00DDDD",
"^.	c #ACACAC",
"/.	c #ADADAD",
"(.	c #7BB8FF",
"_.	c #B0B0B0",
":.	c #B1B1B1",
"<.	c #00E6E6",
"[.	c #B4B4B4",
"}.	c #27DDDD",
"|.	c #B3B6B6",
"1.	c #83C4DD",
"2.	c #00EBFF",
"3.	c #B8B8B8",
"4.	c #B9B9B9",
"5.	c #BBBBBB",
"6.	c #BDBDBD",
"7.	c #8ACECE",
"8.	c #BFBFBF",
"9.	c #00F7F7",
"0.	c #C1C1C1",
"a.	c #00F8FF",
"b.	c #00F9F9",
"c.	c #01F9F9",
"d.	c #00FAFA",
"e.	c #0DF7F7",
"f.	c #C4C4C4",
"g.	c #42EAEA",
"h.	c #C5C5C5",
"i.	c #C6C6C6",
"j.	c #00FFFF",
"k.	c #05FFFF",
"l.	c #0AFFFF",
"m.	c #0DFFFF",
"n.	c #1BFFFF",
"o.	c #94DDDD",
"p.	c #CECECE",
"q.	c #94DDFF",
"r.	c #CFCFCF",
"s.	c #D0D0D0",
"t.	c #2FFFFF",
"u.	c #CED3D3",
"v.	c #D3D3D3",
"w.	c #D9D9D9",
"x.	c #9DEBEB",
"y.	c #DADADA",
"z.	c #DCDCDC",
"A.	c #62FFFF",
"B.	c #DDDDDD",
"C.	c #E0E0E0",
"D.	c #AAF0F0",
"E.	c #E1E1E1",
"F.	c #E4E4E4",
"G.	c #A5F7F7",
"H.	c #E5E5E5",
"I.	c #E6E6E6",
"J.	c #90FFFF",
"K.	c #E7E7E7",
"L.	c #94FFFF",
"M.	c #E8E8E8",
"N.	c #E9E9E9",
"O.	c #9DFFFF",
"P.	c #A4FFFF",
"Q.	c #A5FFFF",
"R.	c #AAFFFF",
"S.	c #B1FFFF",
"T.	c #B5FFFF",
"U.	c #F6F6F6",
"V.	c #DBFFFF",
"W.	c #FBFBFB",
"X.	c #F8FFFF",
"Y.	c #FEFEFE",
"Z.	c #FFFFFF",
"Z.Z.Z.Z.Z.Z.Z.Z.Z.Z.Z.p                   Z.Z.Z.Z.Z.Z.Z.Z.Z.Z.Z.",
"Z.Z.Z.Z.Z.Z.Z.Z.Z.Z.Z.o                   Z.Z.Z.Z.Z.Z.Z.Z.Z.Z.Z.",
"Z.Z.Z.Z.Z.Z.Z.              : : : : : : :         Z.Z.Z.Z.Z.Z.Z.",
"Z.Z.Z.Z.Z.Z.Z.              : : : : : : :         Z.Z.Z.Z.Z.Z.Z.",
"Z.Z.Z.Z.Z.^.3.k k n n n n n : : : : : : : k k k k ^.3.Z.Z.Z.Z.Z.",
"Z.Z.Z.Z.Z.    j.j.R.R.R.R.R.: : : : : : : j.j.j.j.    Z.Z.Z.Z.Z.",
"Z.Z.Z.Z.Z.    j.j.R.R.R.R.R.: : : : : : : j.j.j.j.    Z.Z.Z.Z.Z.",
"Z.Z.      j.j.R.R.Z.Z.Z.Z.Z.R.R.: : : : : : : j.j.j.j.    > Z.Z.",
"Z.Z.      j.j.R.R.Z.Z.Z.Z.Z.R.R.: : : : : : : j.j.j.j.    > Z.Z.",
"Z.Z.      j.j.R.R.Z.Z.Z.Z.Z.R.R.: : : : : : : : : j.j.    ' Z.Z.",
"Z.Z.      j.j.R.R.Z.Z.Z.Z.Z.R.R.: : : : : : : : : j.j.    ' Z.Z.",
"a a ].].].j.j.0 0 T.T.T.T.T.0 0 : : : : : : : : : j.j.].].).c c ",
"    j.j.j.j.j.    R.R.R.R.R.    : : : : : : : : : j.j.j.j.9.    ",
"    j.j.j.j.j.    R.R.R.R.R.    : : : : : : : : : j.j.j.j.9.    ",
"    j.j.j.j.j.                  : : : : : : : : : : : j.j.9.    ",
"    j.j.j.j.j.                  : : : : : : : : : : : j.j.9.    ",
"    j.j.j.j.j.j.j.                  : : : : : : : : : j.j.9.    ",
"    j.j.j.j.j.j.j.                  : : : : : : : : : j.j.9.    ",
"    R.R.R.j.j.j.j.                        : : : : : : R.R.G.    ",
"    R.R.R.j.j.j.j.                        : : : : : : R.R.G.    ",
"    R.R.R.j.j.j.j.                        : : : : : : R.R.G.    ",
"Z.Z.      j.j.j.j.j.j.j.j.j.              : : : : : :     ' Z.Z.",
"Z.Z.      j.j.j.j.j.j.j.j.j.              : : : : : :     ' Z.Z.",
"Z.Z.      R.R.j.j.j.j.j.j.j.              : : : : R.R.    > Z.Z.",
"Z.Z.      R.R.j.j.j.j.j.j.j.              : : : : R.R.    > Z.Z.",
"Z.Z.Z.Z.Z.    R.R.R.R.t.j.j.j.j.          : : R.R.    Z.Z.Z.Z.Z.",
"Z.Z.Z.Z.Z.    R.R.R.R.t.j.j.j.j.          : : R.R.    Z.Z.Z.Z.Z.",
"Z.Z.Z.Z.Z.o p !.!.!.!.g.t.t.t.t.    * * * ~ ~ !.!.o p Z.Z.Z.Z.Z.",
"Z.Z.Z.Z.Z.Z.Z.        !.R.R.R.R.    : : :         Z.Z.Z.Z.Z.Z.Z.",
"Z.Z.Z.Z.Z.Z.Z.        !.R.R.R.R.    : : :         Z.Z.Z.Z.Z.Z.Z.",
"Z.Z.Z.Z.Z.Z.Z.Z.Z.Z.Z.o                   Z.Z.Z.Z.Z.Z.Z.Z.Z.Z.Z.",
"Z.Z.Z.Z.Z.Z.Z.Z.Z.Z.Z.p                   Z.Z.Z.Z.Z.Z.Z.Z.Z.Z.Z."};
