/* XPM */
static char * exit_xpm[] = {
"32 32 10 1",
" 	c #FFFFFF",
".	c #000000",
"+	c #454545",
"@	c #878787",
"#	c #00BBFF",
"$	c #63D2F9",
"%	c #00A2FF",
"&	c #4ECEFD",
"*	c #7ADCFF",
"=	c #FF0000",
"           ..                   ",
"          ..+         ...       ",
"          ..+         ...       ",
"         .+++.. .  ...@@@.      ",
"         .++.++.@..@@@##.       ",
"         ...++.@@.@@##$.        ",
"  ##  .     .+..@@@#$$$$.     % ",
"  ##  .     .+..@@@#$$$$.     % ",
" #&# .%.  .. +++.@.$$$$$$.   %*%",
" #&&#.%. .%. ##++@.$$$...   %&*%",
"  #&#@@. %.  &#+..$$$##.   %&*% ",
" #*&&@+..@+.##++..######.  %*&% ",
" #*&&@+..@+.##++..######.  %*&% ",
" #&*.+@+@+@.##+.+.###.###   %%  ",
"  #*.@@@@+..#&#++#### ...   %%  ",
"   .@@@@++.#&&#+..###.     %&&% ",
" ##.@@@+ @+#*#@@....#.     %**% ",
" ##.@@@+ @+#*#@@....#.     %**% ",
" &&.++@= ##$*..@@@.+..      %%  ",
"#*.@@+.=+$**$.&@.@.++      .@   ",
"#.@@@@@++*$##*..&@@.+..  ..@+   ",
"#.@@@@@++*$##*..&@@.+..  ..@+   ",
" .@@+@+..*# .***.@.++.+..@@@.   ",
"  .+@+.**&#.+&*..@.@++.++@@.    ",
"   ...#&&# .++.. .@@@+.++..     ",
"       ##   .++...@@@+...       ",
"       ##   .++...@@@+...       ",
"             ...#@@@+.          ",
"                .++++.          ",
"                 . +@           ",
"                  ...           ",
"                  ...           "};
