/* XPM */
static char * suelo_xpm[] = {
"32 32 97 2",
"  	c #BB7246",
". 	c #AE6B41",
"+ 	c #A56741",
"@ 	c #C3754A",
"# 	c #BE7546",
"$ 	c #BA7243",
"% 	c #B56E3F",
"& 	c #C87C4B",
"* 	c #C97D4C",
"= 	c #8A4C3C",
"- 	c #8C533D",
"; 	c #905540",
"> 	c #9E6242",
", 	c #AB6940",
"' 	c #86513B",
") 	c #A2633F",
"! 	c #9E603F",
"~ 	c #9A5D3E",
"{ 	c #6D322D",
"] 	c #834D3B",
"^ 	c #8C5340",
"/ 	c #6D3C38",
"( 	c #6A3736",
"_ 	c #663A36",
": 	c #653736",
"< 	c #A76841",
"[ 	c #945A3E",
"} 	c #9C5632",
"| 	c #713C36",
"1 	c #734139",
"2 	c #91563D",
"3 	c #65322F",
"4 	c #955B41",
"5 	c #AF6C40",
"6 	c #B48254",
"7 	c #B58455",
"8 	c #A76B45",
"9 	c #8C5C43",
"0 	c #A87A55",
"a 	c #9A6652",
"b 	c #9A5E41",
"c 	c #734237",
"d 	c #AA663C",
"e 	c #C49C70",
"f 	c #C7A172",
"g 	c #A7714C",
"h 	c #60292F",
"i 	c #A77F53",
"j 	c #DCB675",
"k 	c #BE9068",
"l 	c #B06C40",
"m 	c #B3865B",
"n 	c #B3815A",
"o 	c #A36845",
"p 	c #A37049",
"q 	c #BD905E",
"r 	c #AF7A55",
"s 	c #A45D35",
"t 	c #7F4936",
"u 	c #855740",
"v 	c #9F724B",
"w 	c #5F2B30",
"x 	c #9D7857",
"y 	c #CFAB7C",
"z 	c #A17050",
"A 	c #B6855F",
"B 	c #6F423A",
"C 	c #7C493A",
"D 	c #7C4739",
"E 	c #B46E42",
"F 	c #A35F39",
"G 	c #6A2C2B",
"H 	c #77342E",
"I 	c #964635",
"J 	c #934C36",
"K 	c #A56B48",
"L 	c #AD7952",
"M 	c #BD9162",
"N 	c #C9A375",
"O 	c #B17C56",
"P 	c #B98A5C",
"Q 	c #C49C6E",
"R 	c #7E5444",
"S 	c #BE9A70",
"T 	c #C79E74",
"U 	c #AA7552",
"V 	c #76483C",
"W 	c #BC956C",
"X 	c #AE6B3F",
"Y 	c #3D334F",
"Z 	c #372C46",
"` 	c #3E3E61",
" .	c #3D4269",
"..	c #3F4164",
"+.	c #414263",
"@.	c #404368",
"#.	c #48496B",
"  . +   @ @ # $ % % % $ #   % & & * @ # # # $ % % % % % % % % % ",
"= - ; > + + + + + + , + ' = - - - - + + + + + ) ) ) ! ~ ! ~ ) ) ",
"{ ] ^ ~ + + + + + + , ! / ( / _ _ : ) < + + + + , % ) [ [ - [ + ",
"} ~ ~ + + + + + + + , ! | | ] - - - + + + + + + ~ ' ' ] ' [ [ , ",
"% + + + + + + + + + , ! / 1 2 + + + + + + + + < - : : 3 | [ 4 . ",
"5 + + + + + + + + + , ) | 1 ~ 6 6 7 8 + + + + < - ( 9 0 a b ! . ",
"% + + + + , . , , , , ! : c d e e f g + + + + < ' h i j k + + % ",
"l < + + , ~ - - - ~ , d ' - + m m n o + + + + + [ ] p q r + < l ",
"s + + + . - / ( 3 t + , , + + o o + + + + + + + + + + o + + + % ",
"d + + + . - ( u v p + + , < + + + + + + + + + + < , + + + + + l ",
". < + + . - w x y e ) + + + + , , . , < + + + + + + + + + + + % ",
". < + + < ~ ] z k A + + + + + [ [ 2 ) ! + + + + + + + + + + + d ",
". < + + + + + + + + + + + + + B B ( - [ + + + + + < + + < , , , ",
". < + + + + , + + + + + + + + ] ] C - [ + + + + + + + + + 2 [ 2 ",
". < + + + + + , , + + + + + + ; ; 2 - - > + + + + + < , [ ( 1 ( ",
". < + + + + b ! ! > + + + + + 4 4 ~ b 4 + + + + + + < + [ ( | ( ",
". < + + + ~ 2 ' ] - ~ ~ + + + , , + + + + + + + + + < , ~ ] ] ' ",
". < + + + ~ [ ] | | / C + + + + + + + + + + + + + + + + + + + , ",
". + + + + > ! - / / ( C + + + + + + + + + + + + + + + + < , + . ",
"l , , < + + . 2 ( ( ( D + + + + + + + + + + + + + + + + + + + E ",
"F ~ ~ ) + + , [ ] ] C ' + + + + + + + + + + + + + + + + + + + , ",
"G / : [ + < + + + + + + + + + + + + + + + + 8 , < + + + + + ~ | ",
"H D D ~ , < + + + + < , + + + + + + + + + + > > ) + + + < , ~ | ",
"I ) + + + + + + + + + + + + + , , 8 , , + + ] ( ] [ ~ + < , ~ | ",
"J K L 8 + + + + + + + + + + + ) ) > + ) + < ' / - ~ > + < , ~ | ",
"s M N O ) + + + + + + + + + + 1 1 / ( / ! , 4 - ! , + + + + ~ / ",
"s P Q O + + + + + + + + + + < c c ( R R + , b [ > + + + + + ~ C ",
"s + < < + + + + + + + + + + < | | B S T U ) + + + + + + + + + . ",
"s d + + + + + + + + + + + + + D D V W f L ) + + + + + + + + , % ",
"X , < < < < , ) 2 b < < < < < , , + 8 8 < + < < < < < < < < , % ",
". + . 8 o o o > 4 4 o o o o o o o o o o o o o o o o o o o o 8 . ",
"Y Z Z `  . . . ...+.@.@.@.#.@.@.@.@.@.@.@.@.@.@.@.@.@.@.@.@.@.@."};
