/* XPM */
static char * player_xpm[] = {
"32 32 132 2",
"  	c #FFFFFF",
". 	c #000000",
"+ 	c #FF9900",
"@ 	c #E69138",
"# 	c #4A86E8",
"$ 	c #FFFF00",
"% 	c #FF9B00",
"& 	c #FF9F00",
"* 	c #EE963A",
"= 	c #FF9D00",
"- 	c #E5913A",
"; 	c #454545",
"> 	c #FFA100",
", 	c #868686",
"' 	c #F4F4F4",
") 	c #FDB2A5",
"! 	c #EC9330",
"~ 	c #FB603C",
"{ 	c #EBEBEB",
"] 	c #2B1B0A",
"^ 	c #282828",
"/ 	c #613A00",
"( 	c #241709",
"_ 	c #F69B3C",
": 	c #747474",
"< 	c #824E00",
"[ 	c #563400",
"} 	c #8E5500",
"| 	c #FBCA34",
"1 	c #FB6B45",
"2 	c #FB795E",
"3 	c #8E8E8E",
"4 	c #B2702B",
"5 	c #492E12",
"6 	c #666666",
"7 	c #573715",
"8 	c #FA9714",
"9 	c #765F19",
"0 	c #FED1CA",
"a 	c #C2C2C2",
"b 	c #C87800",
"c 	c #D27E00",
"d 	c #A56300",
"e 	c #1E365D",
"f 	c #7D7D7D",
"g 	c #FB6044",
"h 	c #A0A0A0",
"i 	c #CE8232",
"j 	c #72481C",
"k 	c #DCDCDC",
"l 	c #3A85F0",
"m 	c #E88B00",
"n 	c #372100",
"o 	c #F7961C",
"p 	c #8E5A23",
"q 	c #452900",
"r 	c #342A0B",
"s 	c #FB592F",
"t 	c #F9E51E",
"u 	c #FDCC27",
"v 	c #FCA735",
"w 	c #373737",
"x 	c #2B3339",
"y 	c #A76929",
"z 	c #D99054",
"A 	c #5C5C5C",
"B 	c #BA6F00",
"C 	c #8589BE",
"D 	c #724400",
"E 	c #B4B4B4",
"F 	c #3D72C8",
"G 	c #CBCBCB",
"H 	c #9C7E20",
"I 	c #1A1A1A",
"J 	c #FF9100",
"K 	c #FED9D3",
"L 	c #FAAE89",
"M 	c #FDBBB1",
"N 	c #FDAFA2",
"O 	c #F78D37",
"P 	c #FB4D17",
"Q 	c #F6DA26",
"R 	c #F0BE34",
"S 	c #FBEF16",
"T 	c #F7872F",
"U 	c #FDB431",
"V 	c #FB5749",
"W 	c #7E1A00",
"X 	c #813025",
"Y 	c #D3852F",
"Z 	c #B8931D",
"` 	c #945447",
" .	c #B64632",
"..	c #828500",
"+.	c #40342A",
"@.	c #B5513C",
"#.	c #F06E41",
"$.	c #997A60",
"%.	c #270200",
"&.	c #E09047",
"*.	c #916036",
"=.	c #9F8BA5",
"-.	c #AD8C96",
";.	c #5C6899",
">.	c #6C88D2",
",.	c #A37D79",
"'.	c #B97324",
").	c #2C5698",
"!.	c #706257",
"~.	c #371700",
"{.	c #585049",
"].	c #2684F7",
"^.	c #C89586",
"/.	c #3967B3",
"(.	c #BA8364",
"_.	c #97897E",
":.	c #4F2700",
"<.	c #1A3053",
"[.	c #658CE2",
"}.	c #234880",
"|.	c #55546F",
"1.	c #535A5F",
"2.	c #9A744E",
"3.	c #EBA769",
"4.	c #644B33",
"5.	c #F0B786",
"6.	c #FFD6B1",
"7.	c #AD9F93",
"8.	c #10202A",
"9.	c #A65F00",
"0.	c #BB9674",
"a.	c #000115",
"                                                  s 0           ",
"                                                s | O           ",
"                                                ~ $ t s 0       ",
"                                                ~ $ S g 0       ",
"                                                ~ $ $ V 0       ",
"                                                ~ $ $ R O 2     ",
"                                                ~ g u $ v 2     ",
"                                                  s u $ v 2     ",
"            h 3           3 3 3 f                 W Y $ Z `     ",
"            {.. {         ] ] ] .                 . @.$ ..w     ",
"          . i . {     a . * @ @ * . . . . .         3 * j x     ",
"          %.'.x {   { E n j Y * * ! . @ z z ] n   { , * @ - G   ",
"        . * 5       x j * . . = + % . ! l l o ! . . . _ o m G   ",
"        . * 5     G Y ! > 3   . + + = . # # # # ! % } . b + < w ",
"      . * @ 5 . . D + B .       . = . . . # # # l l ^.& < ( < ; ",
"      . @ @ c . 4 Y < [ . E     . D c c . e # # # # >.C (.b n ; ",
"    k ~.@ @ o 5 Y ! / [ [ _.k { [ [ % = . <.F # # # # # -.&.] ; ",
"    . * @ @ @ @ - 4 m + + B . . + + + = . # . # # # # # # [.< ; ",
"    . * @ @ @ @ 8 + % % % + % % + - - - @ # # # # # }.. . . . ; ",
"    . * @ @ @ . m + ( . . + + - - @ @ @ @ o . > . . B = = = < ; ",
"  1.m 8 @ @ j { _ + n : { d + 8 @ @ 5 * 5 * . & m m } = + 8 ] ; ",
"k 7 8 + ! '.n   _ 8 !.h   2.c + ! '.6 '.7 ! . & + + } & + 8 A , ",
". @ @ ! + m m 1.7 _.      *.m [ q i 3.i 8 q m + + + m q [ 4.    ",
": 4 ! @ + b c : : h       } = D . 5.! ! c D % + + + + . A ,     ",
"  . > * > . .             } & % .   + > . & + + + + + . a       ",
"    . . .                 a . % > . . . & . = + + + + . a       ",
"                          } > . . | | | . * - - + + <           ",
"                          ( n . . r r | . @ @ + + + }           ",
"                          , , , , , , Z . y ! + + B $.          ",
"                                      . . . % J + . a           ",
"                                        .   +   + . E           ",
"                                          . . . .               "};
