/* XPM */
static char * wall_xpm[] = {
"32 32 241 2",
"  	c #50292F",
". 	c #532B31",
"+ 	c #542C32",
"@ 	c #552D33",
"# 	c #562E2F",
"$ 	c #562F35",
"% 	c #582F31",
"& 	c #583036",
"* 	c #5A3132",
"= 	c #593137",
"- 	c #5B3233",
"; 	c #5A3238",
"> 	c #5C3334",
", 	c #5D3435",
"' 	c #5C343A",
") 	c #5F3531",
"! 	c #5E3536",
"~ 	c #603632",
"{ 	c #5F3637",
"] 	c #613633",
"^ 	c #603738",
"/ 	c #623734",
"( 	c #613738",
"_ 	c #5E3933",
": 	c #623839",
"< 	c #5E3A39",
"[ 	c #643935",
"} 	c #63393A",
"| 	c #603B35",
"1 	c #653A36",
"2 	c #613C36",
"3 	c #613D3C",
"4 	c #663C3D",
"5 	c #643E33",
"6 	c #633E38",
"7 	c #623E3D",
"8 	c #643F39",
"9 	c #654039",
"0 	c #64403E",
"a 	c #674135",
"b 	c #66413A",
"c 	c #65413F",
"d 	c #684136",
"e 	c #67423B",
"f 	c #664240",
"g 	c #694237",
"h 	c #68423C",
"i 	c #6C4142",
"j 	c #674341",
"k 	c #69433D",
"l 	c #6B4439",
"m 	c #6A443E",
"n 	c #694443",
"o 	c #6D4535",
"p 	c #6B453F",
"q 	c #6A4544",
"r 	c #6E4635",
"s 	c #6D463B",
"t 	c #6C4640",
"u 	c #6F4736",
"v 	c #6D4741",
"w 	c #704837",
"x 	c #6E4841",
"y 	c #714938",
"z 	c #704A43",
"A 	c #734A3A",
"B 	c #724B3F",
"C 	c #714B44",
"D 	c #744B3B",
"E 	c #734B40",
"F 	c #724C45",
"G 	c #754C3C",
"H 	c #744C41",
"I 	c #734D46",
"J 	c #754D42",
"K 	c #774E3D",
"L 	c #764E43",
"M 	c #754E48",
"N 	c #784F3E",
"O 	c #774F43",
"P 	c #764F49",
"Q 	c #79503F",
"R 	c #77504A",
"S 	c #735249",
"T 	c #7A5140",
"U 	c #795145",
"V 	c #7B5241",
"W 	c #7A5246",
"X 	c #79524B",
"Y 	c #7C5342",
"Z 	c #7A534C",
"` 	c #76554C",
" .	c #7D5443",
"..	c #785648",
"+.	c #7E5544",
"@.	c #7D554E",
"#.	c #7F5644",
"$.	c #7B5844",
"%.	c #7A584A",
"&.	c #80574B",
"*.	c #7C594B",
"=.	c #81584C",
"-.	c #835847",
";.	c #7D5A4B",
">.	c #82594D",
",.	c #845948",
"'.	c #7E5B4C",
").	c #805B48",
"!.	c #835A4D",
"~.	c #855A49",
"{.	c #7F5C4D",
"].	c #815C49",
"^.	c #805C4E",
"/.	c #865B4A",
"(.	c #855B4F",
"_.	c #815D4F",
":.	c #875C4B",
"<.	c #865C50",
"[.	c #845E45",
"}.	c #835E4B",
"|.	c #845F4C",
"1.	c #835F51",
"2.	c #895E4D",
"3.	c #866047",
"4.	c #85604D",
"5.	c #8A5F4E",
"6.	c #895F53",
"7.	c #86614D",
"8.	c #856153",
"9.	c #8B604F",
"0.	c #8A6054",
"a.	c #886249",
"b.	c #87624E",
"c.	c #866254",
"d.	c #8C614F",
"e.	c #89634A",
"f.	c #8D6250",
"g.	c #8A644B",
"h.	c #896450",
"i.	c #886456",
"j.	c #8D6357",
"k.	c #8B654C",
"l.	c #8A6551",
"m.	c #8F6452",
"n.	c #8B6652",
"o.	c #906553",
"p.	c #8D674E",
"q.	c #8C6753",
"r.	c #916654",
"s.	c #8C6859",
"t.	c #926755",
"u.	c #8E6955",
"v.	c #906A50",
"w.	c #8F6A56",
"x.	c #916B51",
"y.	c #926C52",
"z.	c #916C58",
"A.	c #8E6E52",
"B.	c #926D59",
"C.	c #936E5A",
"D.	c #956F55",
"E.	c #946F5B",
"F.	c #917155",
"G.	c #90715A",
"H.	c #927156",
"I.	c #95705B",
"J.	c #91725B",
"K.	c #937257",
"L.	c #96715C",
"M.	c #98725D",
"N.	c #93745D",
"O.	c #99735E",
"P.	c #9C7354",
"Q.	c #96755A",
"R.	c #9A745F",
"S.	c #95765F",
"T.	c #97765A",
"U.	c #9C755B",
"V.	c #9B7560",
"W.	c #997756",
"X.	c #98775B",
"Y.	c #9C7661",
"Z.	c #9E765D",
"`.	c #9B7857",
" +	c #9D7762",
".+	c #9F775D",
"++	c #9C7958",
"@+	c #9B795D",
"#+	c #A0785E",
"$+	c #9C7A5E",
"%+	c #A1795F",
"&+	c #9E7B5A",
"*+	c #9D7B5F",
"=+	c #A27A60",
"-+	c #9F7C5B",
";+	c #9E7C60",
">+	c #9F7D61",
",+	c #A07E62",
"'+	c #A17F63",
")+	c #A28064",
"!+	c #A4815F",
"~+	c #A38165",
"{+	c #A48266",
"]+	c #A68361",
"^+	c #A58367",
"/+	c #A68468",
"(+	c #A78569",
"_+	c #A98664",
":+	c #A8866A",
"<+	c #AB8765",
"[+	c #AC8866",
"}+	c #AD8967",
"|+	c #AF8B69",
"1+	c #B08C6A",
"2+	c #B18D6B",
"3+	c #AC8F6B",
"4+	c #B38E66",
"5+	c #B28E6C",
"6+	c #AE906C",
"7+	c #B59068",
"8+	c #B0926E",
"9+	c #B69169",
"0+	c #B1936F",
"a+	c #B3946A",
"b+	c #B9936B",
"c+	c #B5966C",
"d+	c #B6976D",
"e+	c #B7986E",
"f+	c #BC976E",
"g+	c #B99B70",
"h+	c #BB9C71",
"i+	c #BC9D72",
"j+	c #BD9E73",
"k+	c #BE9F74",
"l+	c #BFA075",
"m+	c #C1A277",
"n+	c #C4A473",
"o+	c #C6A574",
"p+	c #C7A675",
"q+	c #C8A776",
"r+	c #C9A877",
")+^+^+)+Y.Z.=+_+^+~+{+(+@+k.Y B k 8 } } q ^.X.~+/+(+/+/+(+_+/+~+",
"^+~+>+Y.$+>+~+_+@+D.Q.{+^+!+-+X.w._.M F I P '.z.;+~+;+>+{+{+,+ +",
"]+>+Z.O.@+;+~+]+W.v.K._+8+e+f+f+1+ +u.h.(.P q *.z.X.M.@+>+,+Y.V.",
">+.+Z.R.D.D.$+_+!+!+_+a+i+m+q+q+i+}+ +E.q.>.M P '.l.M.$+@+.+ +>+",
"O.O.Y.@+l.e.K.[+d+j+n+o+p+q+r+r+l+8+{+R.z.o.0.R t U L.*+O.R.>+{+",
"*+I.q.h.x.++<+d+l+p+r+r+r+r+r+r+l+0+/+V.B.t.o.&.p t *.q.E.@+*+>+",
"{+H.%.U `.7+j+m+o+q+r+r+r+r+r+r+l+0+/+V.B.t.m.,.B e 6 L l.L.O.V.",
"_+D.W U !+h+r+r+r+r+r+r+r+r+r+r+l+0+/+V.B.t.m.~.K g [ h W h.E. +",
"_+T.[.).]+j+r+r+r+r+r+r+r+r+r+r+l+a+/+R.z.r.m.~.N w o a 8 C z.)+",
"_+Q.).$.!+i+r+r+r+r+r+r+r+r+r+r+j+|+;+w.5./.~. .G y w a { j w.]+",
"_+H.O H >+h+r+r+r+r+r+r+r+r+q+o+e+~+z.~.Y N N D w u w a ! j w.~+",
"{+z.C v *+h+r+r+r+r+r+r+r+q+n+g+[+L.:.T A y w l a d u a ! j w.)+",
"'+w.C v *+h+r+r+r+r+r+r+r+o+g+_+D.}.N A y w r 5 ! / d 5 ! j w.>+",
"w._.M ..*+d+n+r+r+r+r+r+n+f+<+D.:.T A w w w r [ * * / ~ - c i.@+",
"..F X c.;+6+i+p+q+q+q+o+f+]+D./.T D w w w w r 5 , = ! > * 7 _.L.",
"m h %.B.>+}+c+k+n+o+n+g+<+D.~.N y w w w w w u B L S S t ^ 4 _.I.",
"4 0 %.B.>+_+|+8+h+j+b+]+D.}.N A w w w y y A G g.&+_+<+K.B p h.@+",
"C x W q.$+,+*+Q.;+'+Z.r.~.Q A w u o l Y 3.g.p.-+a+k+n+_+).t ;.w.",
"1.&.+.}.Q.Q.n.M U ..+.Y K A u w g 1 l p.!+[+}+d+l+q+r+4+7.s p ..",
"L.u.|.].q.q.{.z x x p l g o o r d / h U.f+p+q+o+n+n+n+}+g.s - 0 ",
"*+$+Q.u.{.*.q.*+,+T.1.h > ) [ g a / h X.f+q+q+k+e+0+8+!+3.s * 3 ",
")+;+Q.q.'.1.*+g+g+|+C.p - - ~ 5 [ > b L.0+l+l+e+3+/+,+F.$.l - < ",
"^+X.h.*.q.>+c+o+l+6+Q.H 1 1 [ _ * % 3 w.:+c+c+6+_+$+q.).K g - 3 ",
"'+w...%.!+g+p+n+e+_+H.V w o a * . . < c.;+^+]+!+-+A.$.y u d - 0 ",
"8._.v.>+c+k+j+d+5+]+F.V y u a *   . < 8.S.Q.p.g.a.).G w u d - 0 ",
"I Z X.c+j+i+d+|+^+$+p.Q y u a * + = 0 _.q.b.Y K K G y w u d - 0 ",
"p I X.e+e+c+2+_+@+p.).G y u a * = 0 F R W J y w w w w w u d * 8 ",
"F F u.]+_+_+_+!+v. .A y u o a ! 0 R (.I 8 6 o r o o o o o d | t ",
"n.{.{.8.B.L.C.p.#.G w w g 5 8 t Z i.C.<.L e [ / / / / / [ e I 1.",
"*+u.%.C &.(.&.N y l o o a 1 i @.w.R.>+L.6.M 8 { ^ ^ ^ { 3 z n.$+",
",+E.c.` M x h | _ _ _ _ 6 v @.z. +~+^+'+O.u.{.*.*.*.*.*.'.c.@+_+",
"R.R.O.G.X 4 ! ! ! ! ! { v '.z.$+~+/+(+^+)+,+*+*+*+*+*+*+;+,+]+_+"};
